<?xml version="1.0" encoding="UTF-8"?>
<!-- Generator: visioncortex VTracer 0.6.3 -->
<svg version="1.1" xmlns="http://www.w3.org/2000/svg" width="1280" height="955">
<path d="M0 0 C0.98 0.3 0.98 0.3 1.97 0.6 C27.89 8.57 53.07 18.34 77.09 31 C79.23 32.12 81.39 33.22 83.54 34.32 C115.04 50.49 144.52 71.03 170.68 94.9 C172.68 96.71 174.7 98.45 176.75 100.19 C182.6 105.27 187.97 110.89 193.42 116.4 C196.19 119.2 198.96 121.98 201.77 124.74 C206.08 128.97 210.08 133.41 214 138 C214.8 138.92 215.6 139.85 216.43 140.8 C230.02 156.56 242.01 173.37 253.46 190.71 C255.46 193.73 257.5 196.71 259.62 199.64 C261.55 202.31 263.22 205.01 264.75 207.94 C266.75 211.7 268.81 215.39 270.97 219.06 C285.36 243.82 295.91 270.91 305 298 C305.25 298.75 305.51 299.5 305.77 300.27 C314.01 324.65 319.22 349.58 323 375 C323.16 376.06 323.32 377.11 323.48 378.2 C323.92 381.09 324.34 383.98 324.75 386.88 C324.87 387.67 324.98 388.47 325.1 389.3 C327.2 404.89 327.19 420.57 327.19 436.28 C327.19 439.83 327.21 443.39 327.22 446.95 C327.27 467.02 326.52 487.17 323.19 507 C322.93 508.58 322.93 508.58 322.67 510.19 C322.13 513.47 321.57 516.73 321 520 C320.81 521.08 320.62 522.17 320.43 523.28 C313.55 561.9 301.89 598.22 286 634 C285.57 634.97 285.14 635.94 284.69 636.95 C280.39 646.57 275.61 655.7 270.05 664.66 C268.27 667.56 266.64 670.48 265.06 673.5 C262.25 678.77 258.97 683.68 255.6 688.61 C253.6 691.54 251.71 694.46 249.99 697.57 C247.99 701.02 245.78 704.05 243.31 707.19 C242.42 708.33 241.53 709.47 240.64 710.61 C240.2 711.17 239.75 711.74 239.29 712.33 C237.34 714.85 235.46 717.43 233.56 720 C229.89 724.91 226.03 729.61 222.04 734.26 C218.4 738.49 214.95 742.84 211.56 747.27 C211.04 747.84 210.53 748.41 210 749 C209.34 749 208.68 749 208 749 C207.59 749.9 207.59 749.9 207.18 750.81 C206.03 752.95 204.9 754.35 203.19 756.07 C202.35 756.92 202.35 756.92 201.48 757.8 C200.56 758.71 200.56 758.71 199.63 759.64 C198.67 760.6 198.67 760.6 197.7 761.57 C196.35 762.93 194.99 764.28 193.64 765.62 C191.59 767.66 189.56 769.7 187.53 771.74 C180.32 778.96 173.03 785.7 165 792 C163.83 792.98 162.66 793.97 161.5 794.97 C154.55 800.96 147.43 806.6 140 812 C139.45 812.4 138.9 812.8 138.34 813.21 C130.78 818.74 123.09 823.97 115.18 828.97 C112.52 830.67 109.91 832.41 107.31 834.19 C102.39 837.48 97.23 840.24 92 843 C90.53 843.78 89.07 844.57 87.6 845.36 C77.87 850.55 68.07 855.48 58 860 C56.82 860.54 55.64 861.08 54.43 861.63 C37.2 869.42 19.46 876.52 1.19 881.41 C-1.24 882.07 -3.66 882.76 -6.08 883.45 C-18.75 887.05 -31.49 889.92 -44.4 892.48 C-46.59 892.92 -48.78 893.38 -50.97 893.87 C-89.88 902.33 -142.64 908.27 -182 898 C-184.03 897.81 -186.06 897.62 -188.09 897.46 C-245.12 892.7 -304.53 872.53 -353.82 843.8 C-356.59 842.23 -359.37 840.81 -362.25 839.44 C-366.7 837.27 -370.58 834.58 -374.58 831.68 C-376.77 830.16 -378.95 828.87 -381.31 827.62 C-387.54 824.26 -393.25 820.12 -399 816 C-399.62 815.56 -400.23 815.12 -400.87 814.66 C-409.15 808.71 -417.21 802.59 -425 796 C-425.55 795.53 -426.1 795.07 -426.67 794.59 C-433.47 788.83 -440.19 782.99 -446.79 776.99 C-448.75 775.23 -450.74 773.52 -452.75 771.81 C-456.75 768.33 -460.5 764.61 -464.25 760.88 C-464.85 760.28 -465.46 759.68 -466.08 759.06 C-475 750.11 -475 750.11 -475 747 C-475.66 747 -476.32 747 -477 747 C-478.37 745.49 -479.67 743.91 -480.94 742.31 C-483.9 738.6 -486.9 734.93 -490 731.34 C-496.45 723.87 -502.3 716.04 -508 708 C-508.4 707.44 -508.8 706.88 -509.21 706.3 C-528.83 678.59 -544.77 649.25 -558 618 C-558.53 616.76 -558.53 616.76 -559.08 615.49 C-576.03 576.07 -585.51 534.15 -590.75 491.69 C-590.87 490.75 -590.98 489.82 -591.1 488.86 C-592.89 473.33 -593.21 457.8 -593.19 442.19 C-593.19 441.25 -593.19 440.3 -593.18 439.33 C-593.08 392.65 -585.65 347.65 -572 303 C-571.58 301.62 -571.58 301.62 -571.15 300.2 C-559.12 260.86 -540.29 223.47 -518 189 C-517.37 188.02 -516.74 187.04 -516.1 186.02 C-511.92 179.61 -507.46 173.42 -502.94 167.25 C-502.36 166.46 -501.78 165.66 -501.19 164.85 C-497.83 160.3 -494.32 155.98 -490.56 151.76 C-488.62 149.57 -486.81 147.3 -485 145 C-480.37 139.3 -475.38 133.97 -470.32 128.66 C-467.54 125.74 -464.81 122.83 -462.27 119.71 C-460.43 117.51 -458.71 115.73 -456.5 113.94 C-452.95 110.98 -449.71 107.8 -446.52 104.45 C-442.27 100.07 -437.71 96.22 -432.94 92.41 C-430.64 90.52 -428.4 88.6 -426.18 86.62 C-422.13 83.06 -417.92 79.76 -413.62 76.5 C-412.88 75.93 -412.13 75.36 -411.36 74.78 C-406 70.72 -400.58 66.76 -395 63 C-394.46 62.63 -393.92 62.27 -393.37 61.89 C-379.08 52.15 -364.29 43.45 -349.11 35.16 C-347.23 34.13 -345.37 33.08 -343.51 32.01 C-257.21 -16.12 -150.07 -28.98 0 0 Z M-2 532 C-2.41 532.48 -2.82 532.96 -3.24 533.46 C-3.78 534.09 -4.32 534.72 -4.88 535.38 C-5.41 536 -5.94 536.63 -6.49 537.27 C-7.61 538.56 -8.79 539.79 -10 541 C-10.29 541.66 -10.58 542.32 -10.88 543 C-12.25 545.45 -13.53 545.8 -16 547 C-16.33 547.99 -16.66 548.98 -17 550 C-17.99 550.33 -18.98 550.66 -20 551 C-20.12 551.62 -20.25 552.24 -20.38 552.88 C-21 555 -21 555 -23.44 556.62 C-24.28 557.08 -25.13 557.53 -26 558 C-27.35 559.35 -28.69 560.73 -30 562.12 C-39.8 571.84 -51.54 579.04 -63.94 584.94 C-64.55 585.23 -65.17 585.53 -65.8 585.83 C-69.54 587.55 -72.97 588.34 -77 589 C-78.89 590.94 -78.89 590.94 -80 593 C-60.93 590.58 -41.99 576.42 -28 564 C-27.18 563.3 -26.35 562.59 -25.5 561.87 C-11.61 549.79 -11.61 549.79 -1 535 C-1.5 533.51 -1.5 533.51 -2 532 Z M-82 592 C-85.6 592.32 -85.6 592.32 -89 593 C-89 593.66 -89 594.32 -89 595 C-90.98 595.99 -90.98 595.99 -93 597 C-88.29 596.52 -84.33 596.03 -80 594 C-80.66 593.34 -81.32 592.68 -82 592 Z M-177 594 C-177.66 594.66 -178.32 595.32 -179 596 C-178.01 596 -177.02 596 -176 596 C-176.33 595.34 -176.66 594.68 -177 594 Z M-170 596 C-170.33 596.66 -170.66 597.32 -171 598 C-170.34 598 -169.68 598 -169 598 C-169.33 597.34 -169.66 596.68 -170 596 Z M-167 596 C-167.33 596.99 -167.66 597.98 -168 599 C-166.68 599 -165.36 599 -164 599 C-164.83 596.83 -164.83 596.83 -167 596 Z M-96 595 C-96 595.66 -96 596.32 -96 597 C-97.65 596.67 -99.3 596.34 -101 596 C-101 596.66 -101 597.32 -101 598 C-102.32 597.67 -103.64 597.34 -105 597 C-105 597.66 -105 598.32 -105 599 C-105.99 599.5 -105.99 599.5 -107 600 C-105.23 599.89 -103.46 599.76 -101.69 599.62 C-100.7 599.56 -99.72 599.49 -98.7 599.41 C-95.78 599.16 -95.78 599.16 -93 597 C-93.99 596.34 -94.98 595.68 -96 595 Z M-156 598 C-156.33 598.99 -156.66 599.98 -157 601 C-155.68 600.67 -154.36 600.34 -153 600 C-153.66 600 -154.32 600 -155 600 C-155.33 599.34 -155.66 598.68 -156 598 Z M-112 598 C-112 598.66 -112 599.32 -112 600 C-112.99 600.5 -112.99 600.5 -114 601 C-111.69 601 -109.38 601 -107 601 C-107.66 600.01 -108.32 599.02 -109 598 C-109.99 598 -110.98 598 -112 598 Z M-148 599 C-148.33 599.99 -148.66 600.98 -149 602 C-145.7 602.33 -142.4 602.66 -139 603 C-139.33 602.01 -139.66 601.02 -140 600 C-141.65 600.33 -143.3 600.66 -145 601 C-145 600.34 -145 599.68 -145 599 C-145.99 599 -146.98 599 -148 599 Z M-122 599 C-122 599.66 -122 600.32 -122 601 C-122.99 601.33 -123.98 601.66 -125 602 C-122.03 602 -119.06 602 -116 602 C-116.66 601.01 -117.32 600.02 -118 599 C-119.32 599 -120.64 599 -122 599 Z M-133 600 C-133.33 600.99 -133.66 601.98 -134 603 C-131.69 603 -129.38 603 -127 603 C-127 602.34 -127 601.68 -127 601 C-129.97 600.5 -129.97 600.5 -133 600 Z " fill="#E72125" transform="translate(772,35)"/>
<path d="M0 0 C38.69 -0.02 77.39 -0.04 116.08 -0.05 C120.65 -0.05 125.21 -0.05 129.77 -0.05 C130.68 -0.06 131.59 -0.06 132.53 -0.06 C147.26 -0.06 161.99 -0.07 176.71 -0.08 C191.82 -0.09 206.92 -0.09 222.03 -0.09 C231.35 -0.1 240.68 -0.1 250.01 -0.11 C256.39 -0.11 262.78 -0.11 269.17 -0.11 C272.86 -0.11 276.55 -0.11 280.24 -0.12 C284.23 -0.12 288.23 -0.12 292.22 -0.12 C293.98 -0.12 293.98 -0.12 295.79 -0.13 C297.38 -0.13 297.38 -0.13 299.01 -0.12 C299.93 -0.12 300.85 -0.12 301.8 -0.12 C304 0 304 0 306 1 C305.39 7.98 304.06 14.53 302.31 21.31 C302.04 22.37 301.77 23.43 301.49 24.52 C300.67 27.68 299.84 30.84 299 34 C298.78 34.84 298.55 35.69 298.32 36.56 C291.2 63.14 280.33 89.72 267.21 113.87 C265.6 116.84 264.08 119.85 262.59 122.89 C260.03 128.04 257.17 132.96 254.19 137.88 C253.66 138.75 253.14 139.62 252.59 140.51 C248.57 147.14 244.41 153.63 240 160 C239.43 160.83 238.86 161.67 238.27 162.52 C228.46 176.73 217.99 190.83 206.27 203.52 C204.38 205.58 202.54 207.67 200.71 209.77 C197.01 214.01 193.22 218.14 189.38 222.25 C188.73 222.94 188.09 223.64 187.43 224.35 C184.13 227.88 180.82 231.03 177 234 C175.32 235.65 173.65 237.32 172 239 C163.68 247.09 155.05 254.62 145.8 261.63 C143.99 263.01 142.2 264.4 140.41 265.79 C122.06 279.92 102.45 293.12 82 304 C80.29 304.95 80.29 304.95 78.55 305.92 C48.78 322.31 16.79 334.26 -16 343 C-16.98 343.26 -17.97 343.53 -18.98 343.8 C-31.12 346.98 -43.33 349.56 -55.69 351.69 C-56.77 351.88 -57.85 352.07 -58.97 352.26 C-83.06 356.21 -107.11 357.56 -131.5 357.44 C-132.86 357.43 -134.21 357.43 -135.57 357.43 C-157.55 357.37 -179.26 356.48 -201 353 C-201.68 352.89 -202.36 352.78 -203.07 352.67 C-250.48 344.98 -295.35 329.61 -338.11 307.95 C-339.41 307.3 -340.72 306.65 -342.03 306.01 C-346.28 303.92 -350.31 301.66 -354.31 299.12 C-358.3 296.62 -362.33 294.25 -366.5 292.06 C-372.43 288.88 -377.87 285.06 -383.34 281.17 C-386.04 279.27 -388.77 277.42 -391.5 275.56 C-409.01 263.44 -426.63 249.93 -441.43 234.57 C-443.19 232.8 -445.05 231.19 -446.94 229.56 C-453.13 224.2 -458.76 218.4 -464.09 212.19 C-466.31 209.64 -468.59 207.17 -470.88 204.69 C-475.79 199.28 -480.48 193.74 -485 188 C-485.58 187.27 -486.15 186.54 -486.74 185.79 C-505.45 161.94 -522.11 136.31 -535.11 108.88 C-536.02 106.95 -536.96 105.04 -537.91 103.12 C-551.71 74.85 -571.32 34.15 -571 2 C-531.92 1.73 -492.83 1.51 -453.75 1.39 C-449.13 1.37 -444.52 1.36 -439.9 1.34 C-438.52 1.34 -438.52 1.34 -437.12 1.33 C-422.24 1.28 -407.37 1.18 -392.5 1.07 C-377.24 0.96 -361.97 0.9 -346.71 0.87 C-337.29 0.85 -327.88 0.8 -318.46 0.71 C-312 0.64 -305.54 0.62 -299.08 0.64 C-295.35 0.65 -291.63 0.63 -287.9 0.57 C-264.35 0.18 -264.35 0.18 -259.32 4.62 C-256.88 7.45 -255.46 10.57 -254 14 C-249.58 19.92 -244.23 24.46 -238.45 29.02 C-234.62 32.11 -234.62 32.11 -233 34 C-233 34.66 -233 35.32 -233 36 C-232.48 36.07 -231.96 36.14 -231.42 36.21 C-227.94 37.34 -225.21 39.47 -222.25 41.56 C-210.94 49.3 -198.87 54.87 -186.11 59.77 C-182.41 61.23 -179.31 62.79 -176 65 C-175.01 65 -174.02 65 -173 65 C-170 65 -170 65 -167 67 C-165.87 67 -164.73 67 -163.56 67 C-160 67 -160 67 -158.06 68 C-154.77 69.6 -151.62 69.12 -148 69 C-148 69.33 -148 69.66 -148 70 C-146.05 70.28 -146.05 70.28 -144.06 70.56 C-143.33 70.67 -142.6 70.77 -141.85 70.88 C-141.24 70.92 -140.63 70.96 -140 71 C-139.67 70.67 -139.34 70.34 -139 70 C-136.16 69.87 -133.64 69.83 -130.88 70.56 C-129.02 71.15 -129.02 71.15 -127.25 70.56 C-125 70 -123.24 69.96 -120.94 70 C-117.1 70.21 -117.1 70.21 -114 69 C-112.15 68.9 -110.29 68.82 -108.44 68.75 C-99.6 68.12 -91.41 65.65 -83 63 C-81.78 62.62 -80.56 62.23 -79.3 61.84 C-60.26 55.44 -43.24 45.01 -28 32 C-27.18 31.3 -26.36 30.61 -25.52 29.89 C-15.82 21.41 -5.74 11.7 0 0 Z " fill="#FBFCFE" transform="translate(772,566)"/>
<path d="M0 0 C0.98 0.3 0.98 0.3 1.97 0.6 C27.89 8.57 53.07 18.34 77.09 31 C79.23 32.12 81.39 33.22 83.54 34.32 C115.04 50.49 144.52 71.03 170.68 94.9 C172.68 96.71 174.7 98.45 176.75 100.19 C182.6 105.27 187.97 110.89 193.42 116.4 C196.19 119.2 198.96 121.98 201.77 124.74 C206.08 128.97 210.08 133.41 214 138 C214.8 138.92 215.6 139.85 216.43 140.8 C230.02 156.56 242.01 173.37 253.46 190.71 C255.46 193.73 257.5 196.71 259.62 199.64 C261.55 202.31 263.22 205.01 264.75 207.94 C266.75 211.7 268.81 215.39 270.97 219.06 C285.36 243.82 295.91 270.91 305 298 C305.25 298.75 305.51 299.5 305.77 300.27 C314.01 324.65 319.22 349.58 323 375 C323.16 376.06 323.32 377.11 323.48 378.2 C323.92 381.09 324.34 383.98 324.75 386.88 C324.87 387.67 324.98 388.47 325.1 389.3 C327.2 404.89 327.19 420.57 327.19 436.28 C327.19 439.83 327.21 443.39 327.22 446.95 C327.27 467.02 326.52 487.17 323.19 507 C322.93 508.58 322.93 508.58 322.67 510.19 C322.13 513.47 321.57 516.73 321 520 C320.81 521.08 320.62 522.17 320.43 523.28 C313.55 561.9 301.89 598.22 286 634 C285.57 634.97 285.14 635.94 284.69 636.95 C280.39 646.57 275.61 655.7 270.05 664.66 C268.27 667.56 266.64 670.48 265.06 673.5 C262.25 678.77 258.97 683.68 255.6 688.61 C253.6 691.54 251.71 694.46 249.99 697.57 C247.99 701.02 245.78 704.05 243.31 707.19 C242.42 708.33 241.53 709.47 240.64 710.61 C240.2 711.17 239.75 711.74 239.29 712.33 C237.34 714.85 235.46 717.43 233.56 720 C229.89 724.91 226.03 729.61 222.04 734.26 C218.4 738.49 214.95 742.84 211.56 747.27 C211.04 747.84 210.53 748.41 210 749 C209.34 749 208.68 749 208 749 C207.59 749.9 207.59 749.9 207.18 750.81 C206.03 752.95 204.9 754.35 203.19 756.07 C202.35 756.92 202.35 756.92 201.48 757.8 C200.56 758.71 200.56 758.71 199.63 759.64 C198.67 760.6 198.67 760.6 197.7 761.57 C196.35 762.93 194.99 764.28 193.64 765.62 C191.59 767.66 189.56 769.7 187.53 771.74 C180.32 778.96 173.03 785.7 165 792 C163.83 792.98 162.66 793.97 161.5 794.97 C154.55 800.96 147.43 806.6 140 812 C139.45 812.4 138.9 812.8 138.34 813.21 C130.78 818.74 123.09 823.97 115.18 828.97 C112.52 830.67 109.91 832.41 107.31 834.19 C102.39 837.48 97.23 840.24 92 843 C90.53 843.78 89.07 844.57 87.6 845.36 C77.87 850.55 68.07 855.48 58 860 C56.82 860.54 55.64 861.08 54.43 861.63 C37.2 869.42 19.46 876.52 1.19 881.41 C-1.24 882.07 -3.66 882.76 -6.08 883.45 C-18.75 887.05 -31.49 889.92 -44.4 892.48 C-46.59 892.92 -48.78 893.38 -50.97 893.87 C-89.88 902.33 -142.64 908.27 -182 898 C-184.03 897.81 -186.06 897.62 -188.09 897.46 C-245.12 892.7 -304.53 872.53 -353.82 843.8 C-356.59 842.23 -359.37 840.81 -362.25 839.44 C-366.7 837.27 -370.58 834.58 -374.58 831.68 C-376.77 830.16 -378.95 828.87 -381.31 827.62 C-387.54 824.26 -393.25 820.12 -399 816 C-399.62 815.56 -400.23 815.12 -400.87 814.66 C-409.15 808.71 -417.21 802.59 -425 796 C-425.55 795.53 -426.1 795.07 -426.67 794.59 C-433.47 788.83 -440.19 782.99 -446.79 776.99 C-448.75 775.23 -450.74 773.52 -452.75 771.81 C-456.75 768.33 -460.5 764.61 -464.25 760.88 C-464.85 760.28 -465.46 759.68 -466.08 759.06 C-475 750.11 -475 750.11 -475 747 C-475.66 747 -476.32 747 -477 747 C-478.37 745.49 -479.67 743.91 -480.94 742.31 C-483.9 738.6 -486.9 734.93 -490 731.34 C-496.45 723.87 -502.3 716.04 -508 708 C-508.4 707.44 -508.8 706.88 -509.21 706.3 C-528.83 678.59 -544.77 649.25 -558 618 C-558.53 616.76 -558.53 616.76 -559.08 615.49 C-576.03 576.07 -585.51 534.15 -590.75 491.69 C-590.87 490.75 -590.98 489.82 -591.1 488.86 C-592.89 473.33 -593.21 457.8 -593.19 442.19 C-593.19 441.25 -593.19 440.3 -593.18 439.33 C-593.08 392.65 -585.65 347.65 -572 303 C-571.58 301.62 -571.58 301.62 -571.15 300.2 C-559.12 260.86 -540.29 223.47 -518 189 C-517.37 188.02 -516.74 187.04 -516.1 186.02 C-511.92 179.61 -507.46 173.42 -502.94 167.25 C-502.36 166.46 -501.78 165.66 -501.19 164.85 C-497.83 160.3 -494.32 155.98 -490.56 151.76 C-488.62 149.57 -486.81 147.3 -485 145 C-480.37 139.3 -475.38 133.97 -470.32 128.66 C-467.54 125.74 -464.81 122.83 -462.27 119.71 C-460.43 117.51 -458.71 115.73 -456.5 113.94 C-452.95 110.98 -449.71 107.8 -446.52 104.45 C-442.27 100.07 -437.71 96.22 -432.94 92.41 C-430.64 90.52 -428.4 88.6 -426.18 86.62 C-422.13 83.06 -417.92 79.76 -413.62 76.5 C-412.88 75.93 -412.13 75.36 -411.36 74.78 C-406 70.72 -400.58 66.76 -395 63 C-394.46 62.63 -393.92 62.27 -393.37 61.89 C-379.08 52.15 -364.29 43.45 -349.11 35.16 C-347.23 34.13 -345.37 33.08 -343.51 32.01 C-257.21 -16.12 -150.07 -28.98 0 0 Z M-387 72 C-387.74 72.51 -388.48 73.02 -389.24 73.54 C-397.25 79.06 -405.08 84.67 -412.54 90.93 C-414.94 92.95 -417.4 94.88 -419.88 96.81 C-425.64 101.41 -430.97 106.43 -436.35 111.46 C-438.49 113.46 -440.66 115.43 -442.83 117.41 C-449.58 123.56 -456.04 129.79 -462 136.72 C-463.91 138.9 -465.87 141.01 -467.85 143.13 C-474.35 150.09 -480.24 157.42 -486 165 C-486.91 166.19 -486.91 166.19 -487.83 167.4 C-494.94 176.71 -501.9 185.99 -508 196 C-508.91 197.42 -509.82 198.84 -510.73 200.25 C-517.6 210.94 -524.06 221.77 -530 233 C-530.46 233.86 -530.92 234.72 -531.39 235.61 C-547.09 265.32 -558.95 296.8 -567.38 329.31 C-567.54 329.97 -567.71 330.62 -567.89 331.3 C-571.02 343.03 -571.02 343.03 -573 355 C-571.35 356.65 -569.41 356.15 -567.13 356.17 C-565.54 356.19 -565.54 356.19 -563.92 356.2 C-562.15 356.22 -562.15 356.22 -560.34 356.23 C-558.48 356.25 -558.48 356.25 -556.58 356.26 C-553.12 356.3 -549.65 356.33 -546.19 356.35 C-543.22 356.37 -540.26 356.4 -537.29 356.43 C-509.14 356.67 -480.99 356.8 -452.85 356.91 C-449.18 356.93 -445.51 356.94 -441.85 356.95 C-440.94 356.96 -440.02 356.96 -439.08 356.97 C-424.34 357.03 -409.59 357.15 -394.84 357.29 C-379.7 357.43 -364.56 357.52 -349.41 357.55 C-340.91 357.56 -332.41 357.61 -323.91 357.72 C-316.66 357.82 -309.42 357.86 -302.17 357.84 C-298.48 357.82 -294.79 357.84 -291.09 357.92 C-276.77 358.83 -276.77 358.83 -263.68 354.44 C-259.89 350.78 -257.38 346.65 -255.06 341.96 C-252.72 337.62 -249.32 334.03 -245.5 330.94 C-243.43 329.23 -241.57 327.55 -239.69 325.62 C-212.54 299.11 -172.95 284.81 -135.51 284.81 C-133.27 284.81 -131.03 284.79 -128.79 284.78 C-116.73 284.73 -105.29 286.11 -93.62 289.25 C-92.82 289.47 -92.01 289.68 -91.18 289.91 C-83.53 292.02 -76.24 294.72 -69 298 C-68.36 298.29 -67.72 298.57 -67.06 298.87 C-51.13 306.13 -37.49 315.78 -25 328 C-24.07 328.88 -23.13 329.77 -22.17 330.68 C-16.64 336.02 -11.78 341.57 -7.26 347.76 C-5.29 350.44 -3.8 352.13 -1 354 C1.42 354.3 1.42 354.3 4.18 354.25 C5.26 354.25 6.34 354.25 7.45 354.26 C8.64 354.25 9.83 354.25 11.05 354.24 C12.31 354.24 13.57 354.24 14.87 354.25 C18.38 354.25 21.88 354.24 25.39 354.23 C29.16 354.22 32.94 354.23 36.72 354.23 C43.26 354.23 49.81 354.22 56.36 354.21 C65.82 354.2 75.29 354.19 84.75 354.19 C100.11 354.18 115.46 354.17 130.82 354.15 C145.74 354.13 160.65 354.12 175.57 354.11 C176.49 354.11 177.41 354.11 178.36 354.11 C182.97 354.11 187.58 354.1 192.19 354.1 C230.46 354.08 268.73 354.04 307 354 C306.68 352.07 306.37 350.15 306.05 348.22 C305.78 346.62 305.78 346.62 305.51 344.98 C304.96 341.77 304.27 338.63 303.45 335.48 C303.02 333.84 303.02 333.84 302.59 332.16 C302.29 331.03 301.99 329.91 301.69 328.75 C301.37 327.56 301.06 326.37 300.74 325.14 C298.4 316.34 295.94 307.62 293 299 C292.55 297.66 292.55 297.66 292.09 296.29 C287.04 281.42 281.17 267.13 274.4 252.95 C273 250.01 271.64 247.05 270.28 244.09 C264.31 231.19 257.6 219.01 250 207 C249.22 205.76 249.22 205.76 248.43 204.5 C238.24 188.31 227.15 172.78 215 158 C214.31 157.14 213.62 156.27 212.91 155.38 C207.67 148.88 202.15 142.69 196.47 136.58 C194.94 134.94 193.43 133.29 191.91 131.63 C184.65 123.7 177.36 115.93 169.19 108.91 C166.63 106.67 164.13 104.37 161.62 102.06 C156.58 97.47 151.39 93.18 146 89 C144.81 88.06 143.62 87.12 142.44 86.18 C124.08 71.75 104.51 59.13 84 48 C82.64 47.26 82.64 47.26 81.26 46.5 C47.37 28.09 11.44 14.2 -26 5 C-26.94 4.76 -27.88 4.53 -28.85 4.28 C-117.32 -17.77 -214.71 -10.05 -387 72 Z M-5 536 C-5.89 536.85 -6.77 537.69 -7.69 538.56 C-10.03 540.79 -10.03 540.79 -11.06 543.19 C-12.28 545.54 -13.67 545.87 -16 547 C-16.33 547.99 -16.66 548.98 -17 550 C-17.99 550.33 -18.98 550.66 -20 551 C-20.19 551.93 -20.19 551.93 -20.38 552.88 C-21 555 -21 555 -23.44 556.62 C-24.28 557.08 -25.13 557.53 -26 558 C-27.35 559.35 -28.69 560.73 -30 562.12 C-39.8 571.84 -51.54 579.04 -63.94 584.94 C-64.55 585.23 -65.17 585.53 -65.8 585.83 C-68.65 587.14 -71.15 588.02 -74.25 588.5 C-77.36 589.07 -77.9 589.81 -80 592 C-82.26 592.51 -82.26 592.51 -84.69 592.69 C-85.9 592.79 -85.9 592.79 -87.14 592.89 C-88.06 592.94 -88.06 592.94 -89 593 C-89 593.66 -89 594.32 -89 595 C-93.75 596.12 -93.75 596.12 -96 595 C-96 595.66 -96 596.32 -96 597 C-97.65 596.67 -99.3 596.34 -101 596 C-101 596.66 -101 597.32 -101 598 C-102.32 597.67 -103.64 597.34 -105 597 C-105 597.66 -105 598.32 -105 599 C-107.31 598.67 -109.62 598.34 -112 598 C-112 598.66 -112 599.32 -112 600 C-115.3 599.67 -118.6 599.34 -122 599 C-122 599.66 -122 600.32 -122 601 C-122.71 600.93 -123.43 600.86 -124.16 600.78 C-134.62 599.71 -134.62 599.71 -145 601 C-145 600.34 -145 599.68 -145 599 C-149.95 599.5 -149.95 599.5 -155 600 C-155.33 599.34 -155.66 598.68 -156 598 C-157.99 597.57 -157.99 597.57 -160.31 597.44 C-162.64 597.25 -164.8 597.05 -167.06 596.48 C-170.03 595.75 -172.96 595.94 -176 596 C-176.33 595.34 -176.66 594.68 -177 594 C-177.66 594.33 -178.32 594.66 -179 595 C-179 594.34 -179 593.68 -179 593 C-180.04 592.66 -181.08 592.32 -182.16 591.97 C-212.64 581.76 -238.28 563.65 -259 539 C-259.45 537.97 -259.91 536.94 -260.38 535.88 C-263.41 532.55 -264 532.54 -268.3 532.26 C-270.59 532.24 -272.88 532.24 -275.17 532.28 C-276.44 532.27 -277.7 532.27 -279 532.26 C-282.5 532.25 -286 532.27 -289.5 532.3 C-293.28 532.33 -297.06 532.32 -300.83 532.32 C-307.38 532.31 -313.92 532.33 -320.46 532.37 C-329.92 532.41 -339.38 532.43 -348.85 532.44 C-364.2 532.45 -379.54 532.49 -394.89 532.55 C-409.81 532.6 -424.72 532.64 -439.63 532.67 C-440.55 532.67 -441.47 532.67 -442.41 532.68 C-447.02 532.68 -451.63 532.69 -456.24 532.7 C-494.5 532.76 -532.75 532.87 -571 533 C-570.85 534.6 -570.7 536.19 -570.54 537.79 C-570.46 538.68 -570.37 539.57 -570.28 540.49 C-569.67 545.95 -568.11 551.2 -566.69 556.5 C-566.52 557.14 -566.35 557.78 -566.17 558.44 C-557.97 588.78 -546.51 618.24 -531.98 646.12 C-530.96 648.08 -529.96 650.04 -528.96 652.01 C-513.77 681.68 -494.06 709.07 -472 734 C-471.23 734.87 -470.46 735.74 -469.67 736.63 C-467.46 739.1 -465.23 741.55 -463 744 C-462.13 744.97 -461.27 745.94 -460.38 746.94 C-447.99 760.72 -434.27 773.21 -420 785 C-419.42 785.48 -418.83 785.97 -418.23 786.47 C-404.81 797.52 -390.82 807.89 -376 817 C-374.21 818.14 -372.42 819.29 -370.62 820.44 C-368.75 821.63 -366.88 822.81 -365 824 C-363.96 824.66 -362.91 825.33 -361.84 826.01 C-355.78 829.81 -349.7 833.27 -343.26 836.38 C-340.88 837.57 -338.54 838.78 -336.21 840.05 C-325.1 846.12 -313.71 851.21 -302 856 C-301.26 856.31 -300.52 856.61 -299.76 856.93 C-277.9 865.98 -255.09 872.88 -232 878 C-230.3 878.38 -230.3 878.38 -228.56 878.77 C-174.94 890.51 -117.26 892.68 -63 884 C-62.32 883.89 -61.64 883.78 -60.93 883.67 C-19.23 876.91 22.01 864.6 60 846 C60.98 845.52 60.98 845.52 61.98 845.03 C79.55 836.42 96.63 827.12 112.88 816.19 C113.92 815.48 114.97 814.78 116.05 814.05 C119.04 812.04 122.02 810.02 125 808 C125.72 807.51 126.44 807.02 127.18 806.52 C142.03 796.37 155.68 784.56 169 772.5 C171.99 769.8 175 767.13 178.06 764.5 C184.51 758.87 190.44 752.77 196 746.27 C198.02 743.97 200.11 741.75 202.21 739.52 C208.94 732.35 215.06 724.83 221 717 C221.5 716.35 221.99 715.7 222.5 715.03 C236.51 696.66 250.4 677.59 261 657 C261.73 655.65 262.46 654.31 263.19 652.96 C281.71 618.68 306 571.94 306 532 C303.5 530.75 301.82 530.87 299.02 530.86 C297.96 530.86 296.9 530.85 295.81 530.85 C294.63 530.85 293.46 530.85 292.25 530.85 C291.01 530.84 289.77 530.84 288.5 530.83 C285.04 530.82 281.59 530.82 278.14 530.81 C274.42 530.8 270.7 530.79 266.98 530.78 C258 530.76 249.01 530.74 240.03 530.73 C237.49 530.73 234.95 530.72 232.42 530.72 C216.67 530.69 200.93 530.67 185.18 530.66 C181.54 530.66 177.89 530.65 174.24 530.65 C173.33 530.65 172.43 530.65 171.49 530.65 C156.8 530.63 142.1 530.6 127.41 530.56 C112.33 530.52 97.25 530.49 82.18 530.49 C73.71 530.49 65.24 530.47 56.77 530.44 C49.56 530.41 42.34 530.4 35.13 530.41 C31.45 530.42 27.77 530.42 24.09 530.39 C20.1 530.36 16.12 530.38 12.13 530.39 C10.38 530.37 10.38 530.37 8.59 530.35 C2.29 530.41 -1.05 530.58 -5 536 Z " fill="#201F1F" transform="translate(772,35)"/>
<path d="M0 0 C1.48 1.21 2.93 2.44 4.38 3.69 C5.34 4.52 6.31 5.36 7.31 6.22 C30.64 26.76 47.04 56.45 49.38 87.69 C49.88 100.7 50.13 113.91 47.38 126.69 C47.12 127.88 46.86 129.07 46.6 130.3 C43.08 144.87 37.16 157.54 28.38 169.69 C27.75 170.61 27.12 171.53 26.48 172.48 C9.32 197.28 -18.84 213.8 -48.25 219.38 C-84.25 224.69 -118.19 217.41 -147.57 195.8 C-160.68 185.89 -172.54 174.06 -180.62 159.69 C-180.95 159.12 -181.27 158.55 -181.6 157.97 C-195.54 133.01 -201.66 101.81 -194.22 73.79 C-184.04 37.85 -164.58 9.54 -131.62 -9 C-89.64 -30.9 -38.36 -28.72 0 0 Z " fill="#FCFDFF" transform="translate(711.625,377.3125)"/>
<path d="M0 0 C14.62 12.94 26.53 31.53 28.3 51.35 C28.44 54.84 28.47 58.32 28.44 61.81 C28.43 63.66 28.43 63.66 28.41 65.54 C28.02 87.21 19.22 104.09 4.69 119.75 C-10.8 134.33 -30.51 141.59 -51.68 141.42 C-75.78 140.65 -95.98 129.93 -112.56 112.71 C-127.28 96.36 -131.08 74.8 -130.17 53.46 C-129.82 48.37 -128.72 43.79 -127 39 C-126.45 37.39 -126.45 37.39 -125.9 35.75 C-120.31 20.2 -110.85 6.28 -97 -3 C-96.25 -3.51 -95.51 -4.02 -94.74 -4.54 C-65.7 -23.19 -26.63 -23.07 0 0 Z " fill="#FCFDFF" transform="translate(689,413)"/>
<path d="M0 0 C0.64 0.54 1.28 1.08 1.94 1.63 C17.19 15.71 29.16 38.95 30.12 59.67 C30.9 89.05 24.45 112.08 4 134 C-12.28 149.34 -32.59 158.96 -55 160 C-55.87 160.04 -56.74 160.08 -57.64 160.12 C-84.29 160.75 -107.86 149.93 -127 132 C-143.87 115.32 -152.13 92.97 -152.38 69.5 C-152.13 49.5 -146.18 28.49 -133 13 C-131.93 11.73 -131.93 11.73 -130.85 10.44 C-123.18 1.63 -115.07 -5.1 -105 -11 C-104.11 -11.53 -103.22 -12.05 -102.3 -12.6 C-68.84 -30.87 -28.45 -23.94 0 0 Z M-112 8 C-112.96 8.76 -113.93 9.53 -114.92 10.31 C-128.8 21.95 -136.87 40.56 -140 58 C-141.69 80.27 -137.66 101.51 -123 119 C-108.52 135.52 -88.88 146.4 -66.76 148.18 C-42.52 149.59 -23.57 141.96 -5.02 126.33 C3.08 118.83 9.92 108.2 14 98 C14.39 97.02 14.78 96.04 15.19 95.03 C20.57 78.74 20.91 56.87 14 41 C13.36 39.5 13.36 39.5 12.71 37.96 C3.5 18.07 -10.94 2.63 -31.38 -5.81 C-59.44 -15.81 -88.91 -10.84 -112 8 Z " fill="#201F1F" transform="translate(699,406)"/>
<path d="" fill="#FCFDFF" transform="translate(0,0)"/>
<path d="" fill="#FCFDFF" transform="translate(0,0)"/>
<path d="" fill="#FCFDFF" transform="translate(0,0)"/>
<path d="" fill="#FCFDFF" transform="translate(0,0)"/>
</svg>
